/* XPM */
static char *f782da1bacdf435e80d5ff71303aa713CmkD0bUcAu1M5shC[] = {
/* columns rows colors chars-per-pixel */
"16 16 190 2 ",
"   c None",
".  c #6A4408",
"X  c #774D04",
"o  c #7B4E06",
"O  c #7C4F05",
"+  c #6B463F",
"@  c #654540",
"#  c #6A4943",
"$  c #6C4448",
"%  c #694C4A",
"&  c #70544E",
"*  c #7F5955",
"=  c #736054",
"-  c #825103",
";  c #885501",
":  c #8A5500",
">  c #8E5901",
",  c #8A5804",
"<  c #895806",
"1  c #8E5B05",
"2  c #8D5A06",
"3  c #8F5C06",
"4  c #895A0F",
"5  c #955B00",
"6  c #935C01",
"7  c #905D07",
"8  c #915E07",
"9  c #925E07",
"0  c #945E04",
"q  c #915E08",
"w  c #915F09",
"e  c #905E0E",
"r  c #966006",
"t  c #9A6002",
"y  c #9F6401",
"u  c #956008",
"i  c #976517",
"p  c #9E6C1D",
"a  c #AA6B03",
"s  c #AA6C06",
"d  c #A56A08",
"f  c #B16D00",
"g  c #B67100",
"h  c #B67203",
"j  c #B27104",
"k  c #B37105",
"l  c #B27106",
"z  c #B37206",
"x  c #B47204",
"c  c #B57305",
"v  c #BC7400",
"b  c #BC7501",
"n  c #BB7605",
"m  c #BE7805",
"M  c #BA780C",
"N  c #BC780E",
"B  c #A46D16",
"V  c #A56E17",
"C  c #A7782E",
"Z  c #B67E2C",
"A  c #C47900",
"S  c #C47A00",
"D  c #C67A00",
"F  c #C37C06",
"G  c #C17D0C",
"H  c #84574D",
"J  c #845F5D",
"K  c #886B44",
"L  c #98744A",
"P  c #8B625A",
"I  c #8A675D",
"U  c #86695B",
"Y  c #8D7456",
"T  c #957353",
"R  c #A17D56",
"E  c #8B6760",
"W  c #866963",
"Q  c #886E61",
"!  c #976C63",
"~  c #9A6D69",
"^  c #9B6F6C",
"/  c #827266",
"(  c #957667",
")  c #9C7E63",
"_  c #90736B",
"`  c #9D776E",
"'  c #967A68",
"]  c #897873",
"[  c #977C74",
"{  c #A37A68",
"}  c #A57B73",
"|  c #B9822B",
" . c #B1813F",
".. c #BC8738",
"X. c #D68500",
"o. c #D48503",
"O. c #D38504",
"+. c #D48504",
"@. c #D48604",
"#. c #DF8B01",
"$. c #D98F1C",
"%. c #E68E00",
"&. c #EA9202",
"*. c #ED9301",
"=. c #EE9401",
"-. c #E4910E",
";. c #EE9608",
":. c #F69800",
">. c #F69801",
",. c #FC9A00",
"<. c #FF9D00",
"1. c #FF9D01",
"2. c #FF9E00",
"3. c #FF9F00",
"4. c #F19F1C",
"5. c #FFA000",
"6. c #FFA007",
"7. c #FEA009",
"8. c #FBA317",
"9. c #F6A11C",
"0. c #C48524",
"q. c #D29537",
"w. c #F4A938",
"e. c #BC8A43",
"r. c #AB8556",
"t. c #AD8659",
"y. c #968068",
"u. c #9E8479",
"i. c #B4896E",
"p. c #BB986E",
"a. c #A68077",
"s. c #A98174",
"d. c #AD8976",
"f. c #AA8179",
"g. c #AB837B",
"h. c #AD8578",
"j. c #AF867C",
"k. c #AE8979",
"l. c #B48478",
"z. c #B48B7D",
"x. c #B98F7D",
"c. c #B2937F",
"v. c #B9927F",
"b. c #B9957C",
"n. c #D29E5C",
"m. c #DFA253",
"M. c #E8A541",
"N. c #C29869",
"B. c #C49F7C",
"V. c #C9A26F",
"C. c #DFAF73",
"Z. c #978785",
"A. c #AE8D80",
"S. c #AD8E82",
"D. c #B78980",
"F. c #B08D83",
"G. c #B29082",
"H. c #B49282",
"J. c #BA9782",
"K. c #BF9681",
"L. c #BC9285",
"P. c #BD9687",
"I. c #BB9883",
"U. c #BB9588",
"Y. c #BA978A",
"T. c #A99795",
"R. c #AB9C9A",
"E. c #C09784",
"W. c #C19C87",
"Q. c #C99D80",
"!. c #C6A18F",
"~. c #C8A18D",
"^. c #CFA48E",
"/. c #D5A980",
"(. c #C7A497",
"). c #CAA090",
"_. c #CAA594",
"`. c #CAA595",
"'. c #CCAB99",
"]. c #CEAB9B",
"[. c #D0AA99",
"{. c #CDAFA3",
"}. c #D3AEA0",
"|. c #D2B3A1",
" X c #D5B2A2",
".X c #D7B6A6",
"XX c #D8B7A6",
"oX c #D5B9AA",
"OX c #DBBDAA",
"+X c #DBC1B2",
/* pixels */
"          O r G d < o           ",
"      1 0 C K p.Y V.| x <       ",
"    ; b V = ] R.Z.T.y.q.6 >     ",
"  1 g o t.u.oX+X{.A.[ / i X.1   ",
"  x A N ' '.|.OX.X`.U._ r.- a   ",
"9 #.t m.k.H.'..X X`.P.l.Q 4 A u ",
"z :.e i.E.G.A.Y.s.h.z.g.c.V %.z ",
"n 5 p Q.^.[.(.I + P ! J ) . ; x ",
"l D 8./.K.~.}.F.` a.# %  .f v m ",
"l 1.1.C.J.W.`.P.} f.E U $.3.5.z ",
"q >.3.w.B.J.!.).D.~ * R ;.3.:.3 ",
"  O.3.3.M.b.v.H.l.^ W ..,.3.+.  ",
"  3 *.3.1.n.k.{ H $ T -.3.*.q   ",
"    d *.3.9.N.( @ & 0.3.*.y     ",
"      q +.:.4.e.L Z &.+.1       ",
"          q z F M a q           "
};
