/* XPM */
static char *_15c6fe2b805414cddc5c0458738c66dZSOBu7dPnmxNqYjV[] = {
/* columns rows colors chars-per-pixel */
"64 64 246 2 ",
"   c None",
".  c #020101",
"X  c #0A0601",
"o  c #0D0A04",
"O  c #0C0B0B",
"+  c #05080B",
"@  c #130D02",
"#  c #100E0A",
"$  c #190F00",
"%  c #1B1101",
"&  c #1A150A",
"*  c #1E180D",
"=  c #12100C",
"-  c #0C0E11",
";  c #191613",
":  c #0F1114",
">  c #2A1900",
",  c #251603",
"<  c #321806",
"1  c #381715",
"2  c #2B130C",
"3  c #2E2007",
"4  c #2E220C",
"5  c #352200",
"6  c #3B2501",
"7  c #3E2904",
"8  c #3A2909",
"9  c #282014",
"0  c #2A2625",
"q  c #3B2C29",
"w  c #3C3634",
"e  c #3F332D",
"r  c #201F20",
"t  c #441A17",
"y  c #501D17",
"u  c #462B01",
"i  c #4D3204",
"p  c #5D3A01",
"a  c #563501",
"s  c #413113",
"d  c #4C2B19",
"f  c #633D00",
"g  c #4A2926",
"h  c #562C26",
"j  c #57342C",
"k  c #473A38",
"l  c #593936",
"z  c #4D332D",
"x  c #643B35",
"c  c #613E2F",
"v  c #5E420E",
"b  c #694506",
"n  c #724600",
"m  c #7A4C01",
"M  c #774E0A",
"N  c #78510C",
"B  c #624511",
"V  c #57433C",
"C  c #4A403D",
"Z  c #69453A",
"A  c #764B3F",
"S  c #573B44",
"D  c #4A3847",
"F  c #6D3B40",
"G  c #584745",
"H  c #564C4C",
"J  c #694843",
"K  c #744A43",
"L  c #78544B",
"P  c #665756",
"I  c #785854",
"U  c #68504F",
"Y  c #75625B",
"T  c #756A68",
"R  c #8B5600",
"E  c #885502",
"W  c #935C02",
"Q  c #985E04",
"!  c #9E6604",
"~  c #9F6806",
"^  c #966619",
"/  c #A26300",
"(  c #A86B05",
")  c #B26D01",
"_  c #AC710B",
"`  c #BB7401",
"'  c #B57408",
"]  c #A16C12",
"[  c #B37616",
"{  c #90682B",
"}  c #AC7829",
"|  c #8E513C",
" . c #C57900",
".. c #C77B01",
"X. c #D07F00",
"o. c #84594C",
"O. c #845B54",
"+. c #875C58",
"@. c #824E4D",
"#. c #896558",
"$. c #95685C",
"%. c #987459",
"&. c #8C6E4D",
"*. c #A76F5A",
"=. c #896964",
"-. c #976B64",
";. c #897269",
":. c #9C726B",
">. c #977568",
",. c #887979",
"<. c #9B7874",
"1. c #876E72",
"2. c #A2746C",
"3. c #A37C6B",
"4. c #A67565",
"5. c #A37C73",
"6. c #A77B75",
"7. c #B27D76",
"8. c #BE852E",
"9. c #CC8202",
"0. c #C3810D",
"q. c #D38400",
"w. c #D98600",
"e. c #DE8900",
"r. c #D28809",
"t. c #C58414",
"y. c #D38E17",
"u. c #E38D00",
"i. c #E88F00",
"p. c #E49105",
"a. c #EC9200",
"s. c #E6950B",
"d. c #F39600",
"f. c #F59902",
"g. c #FF9D00",
"h. c #F69B0D",
"j. c #F29D18",
"k. c #EA9712",
"l. c #FFA001",
"z. c #FFA10B",
"x. c #FEA516",
"c. c #C48921",
"v. c #D19430",
"b. c #FCAA28",
"n. c #FEB238",
"m. c #F1A836",
"M. c #E09B2E",
"N. c #AC8954",
"B. c #9A8269",
"V. c #8D8377",
"C. c #A7846C",
"Z. c #AC8474",
"A. c #AD8A74",
"S. c #AC847B",
"D. c #AD8A7B",
"F. c #A48477",
"G. c #B38B7B",
"H. c #B98D7D",
"J. c #B38977",
"K. c #B5927B",
"L. c #BA947D",
"P. c #B7957A",
"I. c #AC9779",
"U. c #FAB64B",
"Y. c #F9B953",
"T. c #EAAC4B",
"R. c #C4927A",
"E. c #CBAB7B",
"W. c #EFBA69",
"Q. c #C79D5C",
"!. c #FDC469",
"~. c #FECB7A",
"^. c #FFC05D",
"/. c #837C83",
"(. c #978785",
"). c #948C8B",
"_. c #AA8984",
"`. c #B48C82",
"'. c #B88B83",
"]. c #AA938B",
"[. c #B59284",
"{. c #BB9483",
"}. c #BE9A83",
"|. c #BE9B8A",
" X c #B9938A",
".X c #A79997",
"XX c #B69B94",
"oX c #BBA789",
"OX c #B7A699",
"+X c #B7AAA4",
"@X c #BBB2A9",
"#X c #B1A9A6",
"$X c #C29B85",
"%X c #C2958B",
"&X c #C39C8C",
"*X c #C89B88",
"=X c #C49E91",
"-X c #CA9693",
";X c #CA9285",
":X c #C5A18E",
">X c #CAA18D",
",X c #C6A293",
"<X c #CBA594",
"1X c #CCA996",
"2X c #C9A59A",
"3X c #CEAB9B",
"4X c #C4A798",
"5X c #D2AD9C",
"6X c #D6A897",
"7X c #D5B19D",
"8X c #CEAA91",
"9X c #C9ACA4",
"0X c #D9AEA3",
"qX c #C8B5A8",
"wX c #D4B3A3",
"eX c #D9B4A5",
"rX c #DBBCAC",
"tX c #D7B7A9",
"yX c #C8BAB6",
"uX c #D6BCB5",
"iX c #E2B7A8",
"pX c #E3BCB1",
"aX c #E4AE9C",
"sX c #F6CD8F",
"dX c #DEC1AE",
"fX c #DFC6A5",
"gX c #DDC2B4",
"hX c #D8C6BA",
"jX c #CDC1B2",
"kX c #E9C9AA",
"lX c #F6D6A7",
"zX c #E4C8B8",
"xX c #E9D1B9",
"cX c #F5DBB6",
"vX c #EED0A6",
"bX c #FCE3BE",
"nX c #DEC194",
"mX c #DAC9C7",
"MX c #D9D0CE",
"NX c #E2CCC7",
"BX c #E7D4C7",
"VX c #F3DEC7",
"CX c #E7D7D6",
"ZX c #E2CFD0",
"AX c #F4E2CD",
"SX c #F4E9E4",
/* pixels */
"                                                    . - & & % % % $ ; ; . +                                                     ",
"                                            . o , 8 N ] v.y.r.q.q.r.y.t.W N 8 4 O +                                             ",
"                                      + # 8 B _ 9.f.l.l.g.g.l.l.l.l.l.g.g.g.f.s._ b > O O                                       ",
"                                  - * i ~ h.z.l.e.w.u.f.g.g.g.l.l.w.W b p b m / w.g.s._ B * O                                   ",
"                              - O v 0.l.g.q.R p u , > n j.n.b.b.( , # a W / W b i b  .g.z.0.B & +                               ",
"                            + 8 ( f.l...n i m ' v.&.. + OXVXVX+X; + V.vXsX~.n.z.e.R 6 m p.l.z.' u +                             ",
"                          @ N p.l.w.n < R u.n.cXAX.XO w yXNXCXT . k yXMXmXMXZXcXY.x.X.i i w.g.l.p.M @                           ",
"                      . 3 ! l.g.g.n . , y.~.AXhX.Xw C #XMXZXCX,.. H mXmXmXmXuXMXSXbXn.u.a ` g.u.f.g.! 3 .                       ",
"                    . 5 9.l.f.g.g.` @ . ;.BX].H ; 0 ).mXZXNXZX#X- 0 yXZXmXmX1.H ].MXVXb.a.f.f.E m a.l.9.5 .                     ",
"                  . 5 9.l.e.n 9.l.f.p . r V e V q ; ; G ).mXNXNXP + P mXNXmX+X(.H G V.7Xb.f.g.u.n f e.l.9.5 .                   ",
"                . 5 9.l.u.p E d.g.l.0.; . C [.,XXX_.P 0 = H +XmXhXT r G ].uXuXmXjXH . P cXn.g.l...% i e.l.9.5 .                 ",
"              . 5 9.l.u.i a f.g.g.g.sXP . e ,X,X2X9XtXqX,.T ].hXmXuX].U k k T ]..X0 . ).CXAX!.j.p . . a u.l.9.5 .               ",
"              3 9.g.d.f . % ` g.l.Y.VXF.= O <.2X2XwXgXNXBXBXxXNXuXuXtXwXXX;.G k w X 0 qXmXMXCXB.. . p m f d.g.9.3               ",
"            @ ! l.g.R 6 @ . 6 w.x.lX3XoXG + Y 3X9XuXzXxXNXxXxXzXrXtXqX3X9X2X=X[.<.I 1.qXyXuXOXr . u u.d.m  .l.l.~ @             ",
"          + M g.l.` a w.R X . a T.xX}.:XD.;.,XwXqXtXzXzXzXxXhXdXuXtX3X3X2X,X&X&X|.%X$X<.T XXk . r  .g.g.f.f.g.g.f.N +           ",
"        + 7 u.g.g.`  .g.f.m X . ;.4XJ F.1X5X3XwXwXtXgXzXkXzXzXgXtXeX3X4X,X=X&X&X|.[.{.5.k 0 . : ).Y.f.g.g.g.g.g.g.s.u :         ",
"        * ' l.g.) u.g.g.g.d.n . = q G |.1X3X7XwXqXtXdXkXdXrXdXrXdXtXwX3X<X:X&X&X$X%XH.{.D.C X Y uXxXh.g.g.f.W Q g.g.( O         ",
"      : B f.l.w.5 ` g.g.g.g.a.v . V oX1X1X3X3X3X5XqX5XjXtXtXfXdXdXdXeX7X5X<X,X*X%X'.'.H.'._.V H +XmXW.f.d.m X > w.g.f.v :       ",
"      * 0.l.l.R . E l.g.g.g.g.W k [.4X<X1X1X1X3X5X3X3XwXtXfXtXdXdXdXtXeXwX<X<X=X%X{.{.'.H.H.S.k <.+XxXv.a . . . E g.l.0.*       ",
"    O B h.g.g.! . i f.g.g.l.9.z D.|.|.:X:X:X4X1X1X1X1X3X7XwXdXtXdXtXeXeX5X<X,X=X=X%X'.{.H.H.`._._.XX(.k . . , i > e.g.f.i -     ",
"    # _ l.g.l.w., % q.g.g.g.W.F.$X&XoX:X:X:X,X1X1X3X3X1X5XwXrXrXtXtX7XwX3X1X:X:X&X&X$X XG.S.'.`. XT ; . + a X.R % q.g.l.~ =     ",
"    4 e.l.g.g.f.p . W g.g.x.cX;X;X{.$X:XoX&X:X4X5X3X1X3X7XeXrXrXrX7XwX7X5X1X,X:X&X&X$X[.`.J.7.`. XV . ; N a.g.f 5 a.g.g.s.s     ",
"  + b g.g.g.g.l.) X u d.g.Y.zX6X>Xo.Z #.C.{.4X1X5X5X3X5X5XtXrXrXrXtXwX7X3X<X,X&X&X&X|.`.S.Z.7._. X1.k .Xv.d.a.6 a f.g.g.l.b +   ",
"  # _ l.g.g.g.g.a.6 X ` z.sX6XR.7X>.Z z j #.,XwX5X5X1X3XeXrXzXrXeX7X7X3X<X,X&X&X|.|.|.G.S.6.2.6._. X].hX8.i.q.$ R g.g.g.l._ #   ",
"  4 s.g.g.g.g.g.g./ . a b.VXaXR.>XiX$X>.L Z I I.qXtX3X5XtXtXwX,XL.&X5X5X2X=X=X&X%X{.K.A.6.3.2.:.6.XXOXmX8.a./ $ ` l.g.g.g.s.4   ",
"  7 f.g.g.g.g.g.g.a.u X N.xXaXaX*X7X7X$X|.|.;.Z I ].wXwXwX3X,X`.%.$.4.%X<X=X&X%X{.{.H.S.7.S.6.2.<.].#XjX[ u.f < a.l.g.g.g.f.5   ",
"+ N f.l.g.g.g.g.g.g.W X ,.8X*.*.J.8X1X:X<X5XtX=X#.j L [.9X3X2XOXS.+.x o.6.'. X X%XH.'.H.`.`.`._./. X@XOX) X., n g.g.g.g.g.f.p - ",
"+ W l.g.g.g.g.g.w.m > o XXR.| | *.8X8X8X3X5XwXeX3XB.V Z -.G.2X3X&XJ.o.j Z o.:.6.S.S.7.'.`.`.[._._.].@XN. .W $ ` g.g.g.g.g.l.] - ",
"; c.l.g.g.g.d.W > . . i kXK.*.*.8XkX7X6X8X7X5XeXtXwXG.L Z c #.5.6.S.:.K j x @.$.4.2.2.4.7./.'./.XX].yX} ..u u d.l.l.l.g.g.g.v.* ",
"& y.g.g.l.w.p . . > Q k.cX=XR.R.iXkX6X>X>X1X5X0XtXrXeX[.#.Z t g Z K L A A K L O.-.-.-.$.$.+.+.=.=./.yX} Q $ Q d.q./ m R g.g.y.& ",
"% r.l.l...5 . . p w.g.b.BX3X6XR.6XnX6X>X>X>X1X7XrXpXpXrX3X-.g z l g g h x o.:.2.2.-.@.F x h h z H T yX_ f X i 6 % X . 6 f.l.r.$ ",
"$ 9.l.a.u . o E d.g.g.!.BXeXaX>XR.6X*XR.>X&X<X5XeXpXzXzXgX>.L Z d 1 1 g J =.'.<X%X2.@.x h x J I 1..X|.) m . . . . . . > a.l.9.$ ",
"% q.l.u.> X Q f.g.g.g.Y.BXwX6X*XE.>X:X:X$X:X<X5X0XrXpXNXtX=.<.#.l g j L 6.`.6.`.2X`.I J K +.<.].(.@XN. .W . X X o $ , a a.l.q.% ",
"% r.l.e.< R g.g.g.g.g.z.lXqX&XH.J.:XR.R.$X:X>X1X6X0XiXzXXX>.9X_.-.+.=.J.0XpX2X#.=.<.L l S I +.I /.9X^ X.X.R / )  .q.u.a.g.g.r.% ",
"& y.l.w.W f.g.g.g.g.g.g.U.hX[.L.P.R.R.:XR.:X>X<X,X9XwXrX X5.3X,X X`.G. X9X0X9XL 1 g q 1 1 z S G 9X&.) i.g.g.g.g.g.g.g.g.g.g.y.& ",
"& v.g.f.f.g.g.g.g.g.g.g.U.BX|.&.&.L.oXR.L.:X*X:X<X1X3XwX[.5.2X0X2X2X=X=X%XJ.-.V 1 2 2 g t 1 g P 9X^ X.f.g.g.g.g.g.g.g.g.g.g.c.; ",
"O ] l.g.g.g.g.g.g.g.g.g.Y.mX4XC.$.J.R.L.L.:X$X:X=X<X6X5X&X5.`.,X2X-X-XaX{.-.K >.6.l z I l l V ,.oX( a.g.g.g.g.g.g.g.g.g.g.l.W + ",
"+ N g.g.g.g.g.g.g.g.g.g.z.vXtX3X*XL.L.L.}.}.}.&X=X8X,X3X1X X<.>.'.;XH./.:.L <.tXwXI Z =.L I I #XN. .d.g.g.g.g.g.g.g.g.g.g.l.N + ",
"  7 d.g.g.g.g.g.g.g.g.g.g.lXuX7X>XA.oXR.}.}.|.&X,X<X<X5X5X<X X:.+.O.+.+.+.2.0XuX0X6.#.<.-.;.;.jX} w.g.g.g.g.g.g.g.g.g.g.g.d.8   ",
"  * 9.l.g.g.g.g.g.g.g.g.x.cXzX1XR.K.P.oX}.$X$X&X=X>X1X5X<X=X&XS.-.J F -.-X0XpXiX6X`.-.>.-.=.).OX( i.g.g.g.g.g.g.g.g.g.g.g.s.4   ",
"  o _ l.l.g.g.g.g.g.g.g.h.~.VXpXP.I.P.P.R.$X:X:X:X:X1X5X<X<X&XH.2.@.A -.2.2.7.'.'.2.2.-.#.T @XN.` d.g.g.g.g.g.g.g.g.g.g.l._ O   ",
"  + b f.g.g.g.g.g.g.g.g.g.g.m.kX1XA.A.P.oX$X$X|.&X:X1X<X8X8X&X=X%XS.$.K x x h F @.@.@.-.#.T yX^ X.f.g.g.g.g.g.g.g.g.g.g.g.b +   ",
"    s h.g.g.g.g.g.g.g.g.g.g.a.T.xXI.A.I.P.}.|.}.|.&X>X<X<X=X>X6X0X0X-X-X/.2.F y t h h F U (.}./ u.g.g.g.g.g.g.g.g.g.g.g.p.3     ",
"    = ! l.g.g.g.g.g.g.g.g.g.g.f.~.jXA.A.P.L.[.{.|.&X*X=X<X<X6XaX0X0XiXaX0X%X:.F l U j z V #XN. .d.g.g.g.g.g.g.g.g.g.g.g._ #     ",
"    - i f.g.g.g.g.g.g.g.g.g.g.g.f.sXuXA.A.K.L.K.[.$X$X&X>X*X>X6X6XaXaXiX0X-X;X2.-.1.I J T jX^ w.g.g.g.g.g.g.g.g.g.g.g.f.B -     ",
"      * 0.l.g.g.g.g.g.g.g.g.g.g.g.k.sXqXA.A.A.G.L.}.$X$X$X*X*X8X7X0X6X6X-X-X-X;X<.=.=.L OXoX/ p.g.g.g.g.g.g.g.g.g.g.l.0.*       ",
"      = B f.g.g.g.g.g.g.g.g.g.g.g.g.j.vXoXA.G.D.K.L.L.L.G.Z.4.4.4.*.*.-.2.7././.<.:.=.A +XN.` f.g.g.g.g.g.g.g.g.g.g.z.B -       ",
"        + _ l.g.g.g.g.g.g.g.g.g.g.g.f.n.hXF.A.A.J.G.H.J.6.%.o.A x h y h x @.+.+.=.1.I <.jX} w.f.g.g.g.g.g.g.g.g.g.l.' *         ",
"        O d s.l.l.g.g.g.g.g.g.g.g.g.g.f.sXOX3.Z.A.K.J.A.Z.J.H.L.7.4.@.y t 1 1 g U ;.].+X{ ) i.g.g.g.g.g.g.g.g.g.g.p.u +         ",
"          + N l.g.g.g.g.g.g.g.g.g.g.g.g.b.zXB.C.A.K.J.A.Z.J.L.R.;X-X-X7.-.F t 1 z ,.hX{ ! w.f.g.g.g.g.g.g.g.g.g.l.M +           ",
"            @ ! l.g.g.g.g.g.g.g.g.g.g.g.g.!.9X%.C.A.J.A.C.C.3.%.$.@.$.7.'./.+.S D .XC./ w.f.g.g.g.g.g.g.g.g.g.l.t.9             ",
"              4 9.l.g.g.g.g.g.g.g.g.g.g.g.j.vXF.%.C.J.C.C.$.&.L x y y h @.@.I U P @X{ ..d.g.g.g.g.g.g.g.g.g.g.9.8 .             ",
"              . 5 9.l.g.g.g.g.g.g.g.g.g.g.g.U.hXD.C.A.A.C.B.#.A x t 2 2 1 g S D /.I./ u.g.g.g.g.g.g.g.g.g.g.9.5 .               ",
"                . 5 9.g.g.g.g.g.g.g.g.g.g.g.g.T.kX].C.A.K.K.C.&.K x h y g z S /.@X{  .d.g.g.g.g.g.g.g.g.g.9.5 .                 ",
"                  . 5 9.g.g.g.g.g.g.g.g.g.g.g.f.m.jXB.C.A.A.A.3.-.+.I F G l I OX{ ( u.f.g.g.g.g.g.g.g.g.9.5 .                   ",
"                    . 5 9.g.g.g.g.g.g.g.g.g.g.g.f.!.yXT ;.>.>.;.#.+.I U J D .X%.W w.d.g.g.g.g.g.g.g.g...5 .                     ",
"                      . 8 y.h.g.g.g.g.g.g.g.g.g.g.f.W.jX].I V V V J G G U .X].W X.f.g.g.g.g.g.g.l.f.~ 3 .                       ",
"                        . * ^ s.l.g.g.g.g.g.g.g.g.g.f.M.E.9X(.T U k H T @XB.E ' a.g.g.g.g.g.g.l.s.N @                           ",
"                            o u [ l.l.g.g.g.g.g.g.g.g.a.p.v.Q.E.OXOX@XoX{ R ` s.f.g.g.g.g.l.f.( 7 +                             ",
"                              + & B 0.z.l.g.g.g.g.g.l.l.f.a.w. .' 8.} ! ( q.a.g.g.g.g.l.f.0.v O -                               ",
"                                  O * B _ p.g.l.g.g.g.g.g.g.f.f.d.u.e.e.a.f.g.g.l.l.k.! i * O                                   ",
"                                      + + 3 b _ s.f.f.g.l.g.l.g.l.g.g.l.l.f.d.s._ b s # +                                       ",
"                                            + O 4 6 N ! c.y.r.q.q.r.y.v.] p 5 4 O +                                             ",
"                                                    + + ; & % % % % & ; - +                                                     "
};
