/* XPM */
static char *_4ff912812e043e9c361364498a77588Ahunvxv9uJ2Ngadb[] = {
/* columns rows colors chars-per-pixel */
"32 32 219 2 ",
"   c None",
".  c #100A00",
"X  c #1C1100",
"o  c #1F1B1A",
"O  c #231600",
"+  c #2D1C01",
"@  c #271800",
"#  c #321F00",
"$  c #35250A",
"%  c #3B2A0A",
"&  c #3B2909",
"*  c #3F221F",
"=  c #282324",
"-  c #3B302C",
";  c #312E30",
":  c #3A3230",
">  c #392F2A",
",  c #412902",
"<  c #4B2F01",
"1  c #412D0B",
"2  c #46320D",
"3  c #4B3107",
"4  c #553500",
"5  c #593A04",
"6  c #41201B",
"7  c #463310",
"8  c #533A14",
"9  c #482725",
"0  c #463F3F",
"q  c #5C3A33",
"w  c #613C37",
"e  c #693839",
"r  c #6A4300",
"t  c #64430B",
"y  c #68460D",
"u  c #714500",
"i  c #7C4D00",
"p  c #724806",
"a  c #7C5516",
"s  c #744F31",
"d  c #584847",
"f  c #5E5758",
"g  c #6B4945",
"h  c #684849",
"j  c #7B4D45",
"k  c #744C44",
"l  c #7A544B",
"z  c #775246",
"x  c #6D5D5B",
"c  c #69545E",
"v  c #765B59",
"b  c #66534F",
"n  c #75655C",
"m  c #7A6648",
"M  c #766862",
"N  c #6F6566",
"B  c #875402",
"V  c #895602",
"C  c #8B5904",
"Z  c #825509",
"A  c #8C5B08",
"S  c #975D00",
"D  c #905F0B",
"F  c #985D00",
"G  c #845A12",
"H  c #9D6202",
"J  c #98630C",
"K  c #A46500",
"L  c #AB6A01",
"P  c #A76903",
"I  c #BB7502",
"U  c #BD7805",
"Y  c #B77100",
"T  c #AE7215",
"R  c #B47817",
"E  c #8E6C38",
"W  c #B17E2E",
"Q  c #A6762B",
"!  c #C57C03",
"~  c #C97D01",
"^  c #C17700",
"/  c #8A5C55",
"(  c #875E57",
")  c #915D5A",
"_  c #8C635D",
"`  c #886657",
"'  c #926B5C",
"]  c #97695D",
"[  c #997E5C",
"{  c #A86D59",
"}  c #8C6B63",
"|  c #8D6C6B",
" . c #826F6A",
".. c #916D6A",
"X. c #996D64",
"o. c #8C7269",
"O. c #8A786D",
"+. c #937465",
"@. c #9B7C6F",
"#. c #957569",
"$. c #847370",
"%. c #8C7B73",
"&. c #887679",
"*. c #9E7B73",
"=. c #A47B6C",
"-. c #A47B73",
";. c #AA7F73",
":. c #A57F7A",
">. c #BD8123",
",. c #B98637",
"<. c #CD8104",
"1. c #CE8408",
"2. c #D48401",
"3. c #D98601",
"4. c #DE8B03",
"5. c #CA861A",
"6. c #E38E02",
"7. c #EB8F00",
"8. c #E69002",
"9. c #EA9100",
"0. c #F29501",
"q. c #F69901",
"w. c #FF9D00",
"e. c #F19B11",
"r. c #E79717",
"t. c #FFA100",
"y. c #FFA209",
"u. c #FCA518",
"i. c #DE9521",
"p. c #C99036",
"a. c #FAAB2D",
"s. c #FAA927",
"d. c #F6AA32",
"f. c #B48B4E",
"g. c #A78657",
"h. c #948478",
"j. c #9B8365",
"k. c #AD8F69",
"l. c #A5816C",
"z. c #B49466",
"x. c #AC8573",
"c. c #AC8875",
"v. c #AD827A",
"b. c #AC897C",
"n. c #A3877A",
"m. c #B18A76",
"M. c #B38B7C",
"N. c #B4887A",
"B. c #A79077",
"V. c #B4907B",
"C. c #BA967E",
"Z. c #BA987B",
"A. c #B5806B",
"S. c #C09147",
"D. c #E0A74F",
"F. c #F2AF46",
"G. c #FEB646",
"H. c #EBAE53",
"J. c #F9BB5B",
"K. c #DDAC62",
"L. c #D2A776",
"P. c #DFB273",
"I. c #CBA56B",
"U. c #E0AD61",
"Y. c #F1BC6D",
"T. c #EABD7F",
"R. c #F3C47D",
"E. c #978888",
"W. c #9F9090",
"Q. c #AC8C82",
"!. c #B28C82",
"~. c #B48982",
"^. c #AD9281",
"/. c #A8918A",
"(. c #BC9484",
"). c #BD9A83",
"_. c #BF9A8C",
"`. c #B7958A",
"'. c #A99998",
"]. c #B8A292",
"[. c #C39B84",
"{. c #C39C8B",
"}. c #C39887",
"|. c #C59F94",
" X c #CF9C97",
".X c #C5A18F",
"XX c #CAA28D",
"oX c #CDAD8A",
"OX c #D4A58E",
"+X c #C5A293",
"@X c #CBA594",
"#X c #CDA997",
"$X c #CEAB9A",
"%X c #C5A89B",
"&X c #D5A595",
"*X c #D1AD9B",
"=X c #D5A89A",
"-X c #C9B29F",
";X c #D2B09F",
":X c #DAB19B",
">X c #D7B48B",
",X c #E6BF8B",
"<X c #DAAEA4",
"1X c #D3AFA2",
"2X c #D5B3A3",
"3X c #D7BAA9",
"4X c #DCBCAC",
"5X c #D6B5A7",
"6X c #C7B6B5",
"7X c #CFB5AB",
"8X c #E1BFB4",
"9X c #EDC996",
"0X c #DFC2A8",
"qX c #DFC7B9",
"wX c #E1C1AB",
"eX c #E1C4B4",
"rX c #E4CBBA",
"tX c #D9C6C5",
"yX c #E1CCC7",
/* pixels */
"                        1 y G V C G y 2                         ",
"                  1 Z L I 6.t.t.8.Y P P H Z 2                   ",
"              $ C ! P H a 7 K.P.7 m f.5.H K 1.D $               ",
"            5 <.~ < ,.9Xh.c tX'.; qXyX0XR.R P 0.! 5             ",
"          r 2.3.3.+ n M : N 6X6Xd W.tXW.E.I.r.2.K 2.r           ",
"        r 2.V <.y.E = b.`.M n 6X'.N %.'.x d 9Xs.4 r 3.r         ",
"      5 3.S X L G.%X9 h.3XrXrXqXeX-XQ.o.d &.tXh.O S I 8.5       ",
"    $ ~ 4.I i + k.B./.%X3XqXrXeX3X%X@X{._.b.x = E w.0.w.<.$     ",
"    J 6.L w.q.u > n.*X;X2X3X0X4X4X;X@X{.}.M.} d -Xd.~ r 6.A     ",
"  7 6.I < 0.w.T +.+X@X#X$X$X5X4X4X5X*X|.}.(.M.@./.j.@ O K 6.1   ",
"  Z t.6., ~ u.L.(.)..X@X$X#X2X4X4X;X$X|.{.(.N.~.o.o p F V t.Z   ",
"  I w.w.i i G.:Xm.l ' ].1X$X2X8X<X;X@X{._.(.v.:.:.h.i.V L t.U   ",
"1 6.w.w.2.< L.OX@XV.+.#.^.$X5X+Xm.(.+X{.}.M.;.-.Q.%X5.r 3.t.6.& ",
"t q.w.w.^ 1 n.{ C.#X$X@X#.` !.].x.j ] v.M.~.~.!./.].P u w.w.0.t ",
"G t.9.i + a XXA.:X*X#X2X5Xb.z z _ l s ( X.X.X...E.z.u F 2.I w.G ",
"V 0.5 # I a.wXOXOXOXXX&X4X8XQ.w 9 9 l :.-.z e h &.f., O . + 8.C ",
"V 6.4 2.t.s.4X|.[.[.{.@X2X8X`.*.k ( }.~.@.g g | /.W B 4 u F 0.V ",
"G 0.4.w.w.w.T.!.m.[.[..X@X2X!.|.|.`.|.} 9 * 9 d g.3.w.w.w.w.w.G ",
"y q.w.w.w.w.Y.].m.Z.).[.+X$X`.!.`.~...-.} g g M ,.0.w.w.w.w.q.t ",
"& 4.w.w.w.w.J.4XC.Z.[.{.+X$X@XN.) ( ~.<X}.X.o./.5.w.w.w.w.w.6.1 ",
"  U t.w.w.w.s.,X[.V.[.[.{.#X@X{.-./ ) _ ) } | k.3.w.w.w.w.w.U   ",
"  Z w.w.w.w.w.u.>XV.C.).[.@X@X&X<X Xv.k q q  .,.0.w.w.w.w.w.Z   ",
"  2 4.w.w.w.w.w.d.oXb.V.C.}.[.OX=X&X Xv...v b.5.w.w.w.w.w.4.7   ",
"    A w.w.w.w.t.t.F.).c.V.V.x.] / / / } | | k.4.w.w.w.w.w.D     ",
"    $ ~ y.w.w.w.w.w.P.c.m.c.x.m.;.) e 9 v B.R 0.w.w.w.w.<.$     ",
"      5 6.w.w.w.w.w.a.).l.c.l.' k j ) h $.W 7.w.w.w.w.8.t       ",
"        r 6.w.w.w.w.w.H.).c.c.` q 6 9 c j.1.w.w.w.w.6.r         ",
"          r 8.t.w.w.w.w.H.^.j.+.( g h O.R 0.w.w.w.6.r           ",
"            t 1.y.t.w.w.y.D.V.n b x #.Q 6.w.w.w.! 5             ",
"              % D 6.t.w.w.w.r.p.f.g.T 6.w.w.4.A $               ",
"                  7 i U 6.0.w.q.0.9.9.6.U G 1                   ",
"                        % t a V C G t &                         "
};
